<svg width="1600" height="1000" viewBox="0 0 1600 1000" fill="none" xmlns="http://www.w3.org/2000/svg">
  <rect width="1600" height="1000" fill="#F0E7D8"/>
  <rect width="1600" height="520" fill="#B8D5D0"/>
  <path d="M0 680L204 588L400 662L628 514L864 624L1050 512L1290 594L1600 420V1000H0V680Z" fill="#B87A4B"/>
  <path d="M0 796L280 720L492 810L726 648L936 740L1182 650L1430 728L1600 694V1000H0V796Z" fill="#87542F"/>
  <path d="M0 874L194 838L414 880L652 792L848 850L1100 774L1386 850L1600 816V1000H0V874Z" fill="#5B3921"/>
  <rect x="1050" y="470" width="28" height="210" rx="14" fill="#5D402D"/>
  <rect x="1014" y="520" width="100" height="22" rx="11" fill="#5D402D"/>
  <circle cx="284" cy="196" r="84" fill="#F1BA58"/>
</svg>
